<svg viewBox="0 0 186 26" fill="none" xmlns="http://www.w3.org/2000/svg"><path fill-rule="evenodd" clip-rule="evenodd" d="M58.6446 0.0664062V8.34781H59.9621C60.2187 6.81174 61.6816 4.92088 65.0095 4.92088C70.0955 4.92088 73.2737 8.95305 73.2737 14.058V14.5923C73.2737 19.7306 70.0912 23.7669 65.0095 23.7669C61.6816 23.7669 60.2529 21.876 59.9621 20.34H58.6446V23.266H55.7188V0.0664062H58.6446ZM64.4235 21.3042C68.008 21.3042 70.2751 18.6996 70.2751 14.5964V14.0621C70.2751 9.95901 68.008 7.42533 64.4235 7.42533C60.839 7.42533 58.6446 9.95901 58.6446 14.0621V14.5964C58.6446 18.6996 60.7662 21.3042 64.4235 21.3042Z" fill="currentColor"></path><path fill-rule="evenodd" clip-rule="evenodd" d="M43.4466 4.92088C46.7745 4.92088 48.2374 6.81174 48.4941 8.34781H49.8116V5.42177H52.7374V23.266H49.8116V20.34H48.4941C48.2032 21.876 46.7745 23.7669 43.4466 23.7669C38.3607 23.7669 35.1825 19.7347 35.1825 14.5923V14.058C35.1825 8.95305 38.3649 4.92088 43.4466 4.92088ZM44.0326 21.3042C47.6899 21.3042 49.8116 18.6996 49.8116 14.5964V14.0621C49.8116 9.95901 47.6899 7.42533 44.0326 7.42533C40.3754 7.42533 38.181 9.95901 38.181 14.0621V14.5964C38.181 18.6996 40.4481 21.3042 44.0326 21.3042Z" fill="currentColor"></path><path d="M88.1465 18.374C88.1465 20.3352 85.8081 21.4079 83.4305 21.4085C80.9417 21.408 78.3465 20.4434 77.5426 17.4807H74.6168C75.314 21.2625 78.5692 23.7627 83.0306 23.7627C87.4921 23.7627 91.0766 21.9387 91.0766 18.4783C91.0766 14.73 87.9712 13.7324 85.0069 13.2315C84.3866 13.1271 82.5943 12.8057 82.081 12.6972C79.4119 12.1254 78.4965 11.4867 78.4965 10.0926C78.4965 8.23511 80.6181 7.2375 82.4831 7.2375C84.2369 7.2375 86.504 7.70082 87.1627 10.8064H90.0885C89.3913 6.80757 86.2816 4.91671 82.4789 4.91671C78.6761 4.91671 75.7118 7.48794 75.7118 10.2721C75.7118 13.0562 78.0516 14.6966 81.6362 15.2684L84.2326 15.6984C86.7948 16.1241 88.1465 16.767 88.1465 18.374Z" fill="currentColor"></path><path d="M96.154 5.42176C97.0694 5.42176 97.3261 5.17132 97.3261 4.27807V0.0664062H100.252V5.42176H109.324V7.92205H100.252V20.4861H109.324V23.2702H99.9225C98.4981 23.2702 97.3261 22.1265 97.3261 20.7365V7.92205H91.7653V5.42176H96.154Z" fill="currentColor"></path><path d="M116.93 7.91788V20.4485H111.373V23.266H128.197V20.4485H119.856V14.4837C119.856 9.84631 123.842 6.99122 128.27 8.31024V5.09619C124.54 4.38242 121.721 7.13315 121.173 9.09497H119.856V5.41759H112.687V7.91788H116.93Z" fill="currentColor"></path><path fill-rule="evenodd" clip-rule="evenodd" d="M137.56 4.92088C140.888 4.92088 142.351 6.81174 142.608 8.34781H143.925V5.42177H146.851V23.266H143.925V20.34H142.608C142.317 21.876 140.888 23.7669 137.56 23.7669C132.474 23.7669 129.296 19.7347 129.296 14.5923V14.058C129.296 8.95305 132.479 4.92088 137.56 4.92088ZM138.146 21.3042C141.804 21.3042 143.925 18.6996 143.925 14.5964V14.0621C143.925 9.95901 141.804 7.42533 138.146 7.42533C134.489 7.42533 132.295 9.95901 132.295 14.0621V14.5964C132.295 18.6996 134.562 21.3042 138.146 21.3042Z" fill="currentColor"></path><path d="M166.968 11.4158C166.053 7.63403 163.161 4.92088 158.298 4.92088L158.302 4.91671C152.484 4.91671 149.413 8.91548 149.413 14.0538V14.5881C149.413 19.7306 152.484 23.7627 158.302 23.7627C163.058 23.7627 165.946 21.1915 166.934 17.4807H163.897C162.981 19.9434 161.01 21.3334 158.302 21.3334C154.717 21.3334 152.339 18.6912 152.339 14.5881V14.0538C152.339 9.91726 154.717 7.34602 158.302 7.34602C161.078 7.34602 163.093 8.88209 163.97 11.4158H166.968Z" fill="currentColor"></path><path d="M172.602 5.42176C173.517 5.42176 173.774 5.17132 173.774 4.27807V0.0664062H176.699V5.42176H185.772V7.92205H176.699V20.4861H185.772V23.2702H176.37C174.946 23.2702 173.774 22.1265 173.774 20.7365V7.92205H168.213V5.42176H172.602Z" fill="currentColor"></path><g class="logo" transform-origin="14.3 12.5"><path d="M23.5006 23.3495L18.0126 17.9941H9.34635L3.85831 23.3495L6.43337 25.8623L11.9214 20.5069C12.3919 20.0478 13.0122 19.7973 13.6795 19.7973C14.3468 19.7973 14.967 20.0478 15.4375 20.5069L20.9256 25.8623L23.5006 23.3495Z" fill="currentColor"></path><path d="M18.928 16.4497L26.4221 18.4074L27.3632 14.9721L19.869 13.0144C19.2274 12.8475 18.6927 12.4468 18.359 11.8833C18.0254 11.3239 17.9399 10.6686 18.111 10.0425L20.1171 2.72948L16.5967 1.81118L14.5906 9.12419L18.9237 16.4456L18.928 16.4497Z" fill="currentColor"></path><path d="M0.941051 18.4074L8.43524 16.4497L8.43952 16.4456L12.7726 9.12419L10.7665 1.81118L7.24609 2.72948L9.25224 10.0425C9.42334 10.6686 9.33779 11.3239 9.00415 11.8833C8.6705 12.4468 8.13582 12.8475 7.49419 13.0144L0 14.9721L0.941051 18.4074Z" fill="currentColor"></path></g></svg>